<svg width="30" height="26" viewBox="0 0 30 26" fill="none" xmlns="http://www.w3.org/2000/svg">
<path d="M29.3009 0.882935H14.9996H0.698899C0.312949 0.882935 0 1.19588 0 1.58183V9.65547V16.3447V24.4183C0 24.8047 0.312949 25.1172 0.698899 25.1172H14.9996H29.3009C29.6867 25.1172 30 24.8047 30 24.4183V16.3441V9.65467V1.58183C30 1.19528 29.6865 0.882935 29.3009 0.882935ZM14.9996 15.645H8.54815V10.3538H14.9996H21.4505V15.645H14.9996ZM1.398 15.645V10.3538H7.15035V15.645H1.398ZM22.8485 10.3538H28.6012V15.645H22.8485V10.3538ZM28.602 8.95577H22.1509H15.6985V2.28013H28.6018V8.95577H28.602ZM1.398 2.28073H14.3007V8.95637H7.84925H1.398V2.28073ZM1.398 17.043H7.84925H14.3007V23.7186H1.398V17.043ZM28.602 23.7184H15.6987V17.043H22.1498H28.6014V23.7186H28.602V23.7184Z" fill="url(#paint0_linear_205_2648)"/>
<defs>
<linearGradient id="paint0_linear_205_2648" x1="15" y1="0.882935" x2="15" y2="25.1172" gradientUnits="userSpaceOnUse">
<stop stop-color="#FFB15E"/>
<stop offset="1" stop-color="#BF8E31"/>
</linearGradient>
</defs>
</svg>
