<svg width="30" height="30" viewBox="0 0 30 30" fill="none" xmlns="http://www.w3.org/2000/svg">
<path fill-rule="evenodd" clip-rule="evenodd" d="M25.2535 0.157372C25.1412 0.269679 25.0962 0.385 25.0962 0.560513C25.0962 0.87 24.9422 1.46833 24.7817 1.78308C24.7142 1.91545 24.437 2.28231 24.1658 2.5984C23.5997 3.25808 23.3442 3.7218 23.1687 4.40808C22.8433 5.68058 23.1977 6.92051 24.2073 8.04154C24.9301 8.84417 25.1985 9.61853 25.0515 10.4771C24.9477 11.0828 24.726 11.5068 24.1821 12.1399C23.6038 12.8131 23.3421 13.2816 23.1715 13.9485C22.8374 15.255 23.2129 16.5556 24.2332 17.6253C25.1162 18.551 25.3224 19.774 24.7793 20.8624C24.6729 21.0756 24.3829 21.4784 24.1349 21.7576C23.3453 22.6464 22.9908 23.6062 23.0648 24.6547C23.1316 25.6013 23.4851 26.3684 24.2261 27.1744C24.8458 27.8485 25.0962 28.4617 25.0962 29.3058C25.0962 29.6685 25.1189 29.7597 25.2365 29.8693C25.3694 29.9932 25.4557 30 26.8917 30C28.6889 30 28.8533 29.9648 29.282 29.4879C29.4344 29.3184 29.5934 29.0653 29.6353 28.9254C29.7471 28.5523 29.7454 1.44359 29.6336 1.06513C29.5296 0.713013 28.9985 0.181987 28.6464 0.0779487C28.4725 0.0266025 27.876 0 26.8967 0H25.4108L25.2535 0.157372ZM28.5285 1.18301L28.6859 1.34032V15V28.6597L28.5285 28.817C28.3735 28.9721 28.3548 28.9744 27.2521 28.9744H26.1331L26.091 28.7019C25.9676 27.903 25.6019 27.1828 24.9683 26.4913C24.2933 25.7547 24.0196 24.941 24.1431 24.0385C24.2217 23.4644 24.4947 22.9441 25.0338 22.3415C25.7741 21.5138 26.1229 20.6536 26.1208 19.6603C26.1188 18.6718 25.7865 17.8735 24.9958 16.9578C24.4372 16.3109 24.2355 15.9256 24.1392 15.3216C23.9964 14.427 24.2849 13.611 25.0367 12.7834C25.7685 11.9776 26.1229 11.1035 26.1208 10.109C26.1188 9.11301 25.7882 8.3118 25.0091 7.41436C24.4389 6.7575 24.2251 6.34404 24.1381 5.72942C24.0163 4.8693 24.2912 4.04987 24.9419 3.33301C25.1501 3.10365 25.4168 2.76545 25.5344 2.58147C25.7756 2.2043 26.0543 1.46776 26.0563 1.20192L26.0577 1.02564H27.2144C28.3571 1.02564 28.3731 1.02756 28.5285 1.18301ZM12.2756 6.62526C12.1522 6.66987 10.6955 7.61333 9.03846 8.7218L6.02564 10.7372L3.97436 10.7692L1.92308 10.8013L1.49487 11.0042C0.89891 11.2865 0.527757 11.6499 0.239423 12.2333L0 12.7177V15.1282V17.5387L0.239423 18.0231C0.527757 18.6065 0.89891 18.9699 1.49487 19.2522L1.92308 19.4551L4.0059 19.4753C5.64231 19.4911 6.10949 19.514 6.18538 19.582C6.23853 19.6296 7.62647 20.4744 9.26968 21.4592C11.4304 22.7542 12.3326 23.2619 12.5291 23.2934C13.1952 23.3999 13.8264 23.0797 14.1565 22.468C14.2938 22.2136 14.295 22.1776 14.3126 17.9315L14.3304 13.6515L14.1713 13.4924C13.9614 13.2825 13.6675 13.2818 13.4587 13.4907L13.3013 13.648V17.782V21.9159L13.1571 22.0774C12.8489 22.4222 12.9165 22.4524 9.74481 20.5515C7.96712 19.4861 6.77032 18.7299 6.7209 18.6409C6.61442 18.449 6.59648 11.7936 6.70192 11.5965C6.79442 11.4237 12.5216 7.60974 12.7383 7.57673C12.8683 7.55692 12.9619 7.59949 13.1069 7.74449C13.301 7.93859 13.3013 7.93981 13.3013 8.68391C13.3013 9.38942 13.3096 9.43724 13.4587 9.58622C13.6497 9.77731 13.9329 9.79167 14.1435 9.62096C14.2899 9.50244 14.2949 9.46776 14.2949 8.5793C14.2949 7.75308 14.2805 7.63346 14.1528 7.39468C13.7854 6.70756 12.9709 6.37372 12.2756 6.62526ZM19.7815 8.76378C19.6269 8.825 16.096 11.3548 15.9776 11.4894C15.7211 11.7806 15.967 12.3077 16.3594 12.3077C16.4901 12.3077 17.0495 11.9428 18.4277 10.9585C19.4667 10.2164 20.3388 9.57455 20.3657 9.53218C20.4606 9.38282 20.418 9.03981 20.2885 8.91026C20.2179 8.83974 20.1338 8.78205 20.1014 8.78205C20.069 8.78205 20.0041 8.76994 19.9572 8.75506C19.9102 8.74026 19.8312 8.74417 19.7815 8.76378ZM13.4587 10.9266C13.3212 11.064 13.3013 11.1413 13.3013 11.5385C13.3013 11.9356 13.3212 12.0129 13.4587 12.1503C13.5578 12.2496 13.6892 12.3077 13.8141 12.3077C13.939 12.3077 14.0704 12.2496 14.1696 12.1503C14.3071 12.0129 14.3269 11.9356 14.3269 11.5385C14.3269 11.1413 14.3071 11.064 14.1696 10.9266C14.0704 10.8274 13.939 10.7692 13.8141 10.7692C13.6892 10.7692 13.5578 10.8274 13.4587 10.9266ZM5.60897 15.1282V18.4615H3.96577C2.86301 18.4615 2.23577 18.4359 2.05872 18.3836C1.7066 18.2796 1.17558 17.7485 1.07154 17.3964C0.962756 17.0282 0.962756 13.2282 1.07154 12.86C1.16801 12.5335 1.70462 11.9778 2.01923 11.8787C2.15647 11.8354 2.8968 11.8054 3.92628 11.8014L5.60897 11.7949V15.1282ZM16.0228 14.5163C15.9235 14.6155 15.8654 14.7469 15.8654 14.8718C15.8654 14.9967 15.9235 15.1281 16.0228 15.2272L16.1801 15.3846H18.1731H20.1661L20.3234 15.2272C20.4226 15.1281 20.4808 14.9967 20.4808 14.8718C20.4808 14.7469 20.4226 14.6155 20.3234 14.5163L20.1661 14.359H18.1731H16.1801L16.0228 14.5163ZM16.0408 17.516C15.8963 17.6258 15.8141 17.884 15.8626 18.076C15.9196 18.3019 19.7274 21.0256 19.9863 21.0256C20.3541 21.0256 20.6174 20.5257 20.4006 20.2391C20.3566 20.1808 19.4696 19.5263 18.4296 18.7846C16.4765 17.3915 16.3165 17.3066 16.0408 17.516Z" fill="url(#paint0_linear_205_2636)"/>
<defs>
<linearGradient id="paint0_linear_205_2636" x1="14.8592" y1="0" x2="14.8592" y2="30" gradientUnits="userSpaceOnUse">
<stop stop-color="#FFB15E"/>
<stop offset="1" stop-color="#BF8E31"/>
</linearGradient>
</defs>
</svg>
