<svg width="30" height="30" viewBox="0 0 30 30" fill="none" xmlns="http://www.w3.org/2000/svg">
<g clip-path="url(#clip0_205_2618)">
<path d="M26.8239 13.795C26.8247 13.3903 26.6667 13.002 26.3848 12.7165L18.6164 4.80615C18.0234 4.23014 17.0904 4.23014 16.4974 4.80615L3.07918 18.4688C2.49444 19.0645 2.49444 20.0303 3.07918 20.6259L10.8478 28.5362C11.4328 29.1318 12.3816 29.1318 12.9668 28.5362L26.3848 14.8735C26.6667 14.588 26.8247 14.1997 26.8239 13.795ZM25.6788 14.1545L12.2606 27.8172C12.167 27.9126 12.0397 27.9662 11.9073 27.9662C11.7746 27.9662 11.6476 27.9126 11.554 27.8172L3.78535 19.9064C3.69123 19.8115 3.63855 19.6822 3.63904 19.5474C3.63904 19.4125 3.69171 19.2832 3.78535 19.1878L17.2036 5.52516C17.2972 5.42982 17.4243 5.37619 17.5569 5.37619C17.6893 5.37619 17.8166 5.42982 17.9102 5.52516L25.6788 13.4355C25.8737 13.6341 25.8737 13.9559 25.6788 14.1545Z" fill="url(#paint0_linear_205_2618)"/>
<path d="M20.7354 11.2782L21.4418 10.5592L22.1482 11.2787L21.442 11.9977L20.7354 11.2782Z" fill="url(#paint1_linear_205_2618)"/>
<path d="M8.02344 22.7833L8.72961 22.0643L9.43579 22.7833L8.72961 23.5024L8.02344 22.7833Z" fill="url(#paint2_linear_205_2618)"/>
<path d="M19.3232 9.83974L20.0294 9.12073L20.7356 9.83974L20.0294 10.559L19.3232 9.83974Z" fill="url(#paint3_linear_205_2618)"/>
<path d="M25.9928 0.000299403C25.2988 -0.00739722 24.6249 0.235666 24.0906 0.686041C23.3303 1.34447 22.2135 1.34447 21.4532 0.686041C20.3454 -0.228364 18.7599 -0.228364 17.6519 0.686041C17.2888 1.01178 16.8194 1.18781 16.3354 1.17986C15.8514 1.18781 15.3817 1.01178 15.0181 0.686041C13.9104 -0.228364 12.3249 -0.228364 11.2174 0.686041C10.8535 1.01178 10.3839 1.18781 9.89987 1.17986C9.41608 1.18756 8.94668 1.01153 8.58335 0.686041C7.47582 -0.228364 5.89035 -0.228364 4.78256 0.686041C4.41899 1.01178 3.94935 1.18781 3.46508 1.17986C2.98154 1.18781 2.51262 1.01178 2.14979 0.686041C1.61601 0.235666 0.942759 -0.00739722 0.249512 0.000299403V1.01724C0.733297 1.00955 1.20245 1.18557 1.56554 1.51131C2.09858 1.96094 2.77085 2.20376 3.46313 2.19681C4.15662 2.20426 4.83011 1.96144 5.36438 1.51131C6.12297 0.852386 7.23953 0.852386 7.99813 1.51131C9.10591 2.42522 10.6907 2.42522 11.7984 1.51131C12.5573 0.852386 13.6741 0.852386 14.4329 1.51131C14.9674 1.96194 15.6417 2.205 16.3354 2.19681C17.0286 2.20426 17.7021 1.96144 18.2361 1.51131C18.9947 0.852386 20.1113 0.852386 20.8699 1.51131C21.4044 1.96169 22.0784 2.20475 22.7721 2.19681C23.4659 2.2045 24.1398 1.96144 24.6744 1.51131C25.4344 0.852386 26.5519 0.852386 27.3123 1.51131C27.8468 1.96144 28.5207 2.2045 29.2142 2.19681V1.17986C28.7295 1.18781 28.2593 1.01178 27.895 0.686041C27.3605 0.235666 26.6866 -0.00739722 25.9928 0.000299403Z" fill="url(#paint4_linear_205_2618)"/>
<path d="M4.24465 3.55957C3.14149 3.55957 2.24707 4.47001 2.24707 5.59347C2.24707 6.6052 2.91935 7.11889 4.24465 7.11889C5.57019 7.11889 6.24223 6.6052 6.24223 5.59347C6.24223 4.47001 5.34805 3.55957 4.24465 3.55957ZM4.24465 6.10194C3.24586 6.10194 3.24586 5.83182 3.24586 5.59347C3.24586 5.03186 3.69307 4.57652 4.24465 4.57652C4.79647 4.57652 5.24344 5.03186 5.24344 5.59347C5.24344 5.83182 5.24344 6.10194 4.24465 6.10194Z" fill="url(#paint5_linear_205_2618)"/>
<path d="M3.74561 11.1866C3.74561 12.1983 4.41789 12.712 5.74318 12.712C7.06873 12.712 7.74076 12.1983 7.74076 11.1866C7.74076 10.0631 6.84658 9.15271 5.74318 9.15271C4.64003 9.15271 3.74561 10.0631 3.74561 11.1866ZM6.74197 11.1866C6.74197 11.425 6.74197 11.6951 5.74318 11.6951C4.7444 11.6951 4.7444 11.425 4.7444 11.1866C4.7444 10.625 5.19161 10.1697 5.74318 10.1697C6.29501 10.1697 6.74197 10.625 6.74197 11.1866Z" fill="url(#paint6_linear_205_2618)"/>
<path d="M3.74563 24.4069C2.64247 24.4069 1.74805 25.3173 1.74805 26.4408C1.74805 27.4525 2.42033 27.9662 3.74563 27.9662C5.07117 27.9662 5.7432 27.4525 5.7432 26.4408C5.7432 25.3173 4.84902 24.4069 3.74563 24.4069ZM3.74563 26.9492C2.74684 26.9492 2.74684 26.6791 2.74684 26.4408C2.74684 25.8792 3.19405 25.4238 3.74563 25.4238C4.29745 25.4238 4.74441 25.8792 4.74441 26.4408C4.74441 26.6791 4.74441 26.9492 3.74563 26.9492Z" fill="url(#paint7_linear_205_2618)"/>
<path d="M26.7178 6.61044C26.7178 5.48698 25.8236 4.57654 24.7202 4.57654C23.6171 4.57654 22.7227 5.48698 22.7227 6.61044C22.7227 7.62217 23.3949 8.13586 24.7202 8.13586C26.0458 8.13586 26.7178 7.62217 26.7178 6.61044ZM23.7214 6.61044C23.7214 6.04883 24.1687 5.59349 24.7202 5.59349C25.2721 5.59349 25.719 6.04883 25.719 6.61044C25.719 6.84878 25.719 7.11891 24.7202 7.11891C23.7214 7.11891 23.7214 6.84878 23.7214 6.61044Z" fill="url(#paint8_linear_205_2618)"/>
<path d="M26.2183 25.4238C25.1151 25.4238 24.2207 26.3343 24.2207 27.4577C24.2207 28.4695 24.893 28.9831 26.2183 28.9831C27.5438 28.9831 28.2159 28.4695 28.2159 27.4577C28.2159 26.3343 27.3217 25.4238 26.2183 25.4238ZM26.2183 27.9662C25.2195 27.9662 25.2195 27.6961 25.2195 27.4577C25.2195 26.8961 25.6667 26.4408 26.2183 26.4408C26.7701 26.4408 27.2171 26.8961 27.2171 27.4577C27.2171 27.6961 27.2171 27.9662 26.2183 27.9662Z" fill="url(#paint9_linear_205_2618)"/>
<path d="M1.74805 14.746H2.74684V15.7629H1.74805V14.746Z" fill="url(#paint10_linear_205_2618)"/>
<path d="M7.74072 28.9832H8.73951V30.0001H7.74072V28.9832Z" fill="url(#paint11_linear_205_2618)"/>
<path d="M10.2378 5.08496H11.2366V6.10191H10.2378V5.08496Z" fill="url(#paint12_linear_205_2618)"/>
<path d="M26.2183 20.3391H27.2171V21.3561H26.2183V20.3391Z" fill="url(#paint13_linear_205_2618)"/>
<path d="M18.7275 26.9492H19.7263V27.9662H18.7275V26.9492Z" fill="url(#paint14_linear_205_2618)"/>
</g>
<defs>
<linearGradient id="paint0_linear_205_2618" x1="14.7323" y1="4.37415" x2="14.7323" y2="28.9829" gradientUnits="userSpaceOnUse">
<stop stop-color="#FFB15E"/>
<stop offset="1" stop-color="#BF8E31"/>
</linearGradient>
<linearGradient id="paint1_linear_205_2618" x1="21.4418" y1="10.5592" x2="21.4418" y2="11.9977" gradientUnits="userSpaceOnUse">
<stop stop-color="#FFB15E"/>
<stop offset="1" stop-color="#BF8E31"/>
</linearGradient>
<linearGradient id="paint2_linear_205_2618" x1="8.72961" y1="22.0643" x2="8.72961" y2="23.5024" gradientUnits="userSpaceOnUse">
<stop stop-color="#FFB15E"/>
<stop offset="1" stop-color="#BF8E31"/>
</linearGradient>
<linearGradient id="paint3_linear_205_2618" x1="20.0294" y1="9.12073" x2="20.0294" y2="10.559" gradientUnits="userSpaceOnUse">
<stop stop-color="#FFB15E"/>
<stop offset="1" stop-color="#BF8E31"/>
</linearGradient>
<linearGradient id="paint4_linear_205_2618" x1="14.7319" y1="0.00012207" x2="14.7319" y2="2.19701" gradientUnits="userSpaceOnUse">
<stop stop-color="#FFB15E"/>
<stop offset="1" stop-color="#BF8E31"/>
</linearGradient>
<linearGradient id="paint5_linear_205_2618" x1="4.24465" y1="3.55957" x2="4.24465" y2="7.11889" gradientUnits="userSpaceOnUse">
<stop stop-color="#FFB15E"/>
<stop offset="1" stop-color="#BF8E31"/>
</linearGradient>
<linearGradient id="paint6_linear_205_2618" x1="5.74318" y1="9.15271" x2="5.74318" y2="12.712" gradientUnits="userSpaceOnUse">
<stop stop-color="#FFB15E"/>
<stop offset="1" stop-color="#BF8E31"/>
</linearGradient>
<linearGradient id="paint7_linear_205_2618" x1="3.74563" y1="24.4069" x2="3.74563" y2="27.9662" gradientUnits="userSpaceOnUse">
<stop stop-color="#FFB15E"/>
<stop offset="1" stop-color="#BF8E31"/>
</linearGradient>
<linearGradient id="paint8_linear_205_2618" x1="24.7202" y1="4.57654" x2="24.7202" y2="8.13586" gradientUnits="userSpaceOnUse">
<stop stop-color="#FFB15E"/>
<stop offset="1" stop-color="#BF8E31"/>
</linearGradient>
<linearGradient id="paint9_linear_205_2618" x1="26.2183" y1="25.4238" x2="26.2183" y2="28.9831" gradientUnits="userSpaceOnUse">
<stop stop-color="#FFB15E"/>
<stop offset="1" stop-color="#BF8E31"/>
</linearGradient>
<linearGradient id="paint10_linear_205_2618" x1="2.24744" y1="14.746" x2="2.24744" y2="15.7629" gradientUnits="userSpaceOnUse">
<stop stop-color="#FFB15E"/>
<stop offset="1" stop-color="#BF8E31"/>
</linearGradient>
<linearGradient id="paint11_linear_205_2618" x1="8.24012" y1="28.9832" x2="8.24012" y2="30.0001" gradientUnits="userSpaceOnUse">
<stop stop-color="#FFB15E"/>
<stop offset="1" stop-color="#BF8E31"/>
</linearGradient>
<linearGradient id="paint12_linear_205_2618" x1="10.7372" y1="5.08496" x2="10.7372" y2="6.10191" gradientUnits="userSpaceOnUse">
<stop stop-color="#FFB15E"/>
<stop offset="1" stop-color="#BF8E31"/>
</linearGradient>
<linearGradient id="paint13_linear_205_2618" x1="26.7177" y1="20.3391" x2="26.7177" y2="21.3561" gradientUnits="userSpaceOnUse">
<stop stop-color="#FFB15E"/>
<stop offset="1" stop-color="#BF8E31"/>
</linearGradient>
<linearGradient id="paint14_linear_205_2618" x1="19.2269" y1="26.9492" x2="19.2269" y2="27.9662" gradientUnits="userSpaceOnUse">
<stop stop-color="#FFB15E"/>
<stop offset="1" stop-color="#BF8E31"/>
</linearGradient>
<clipPath id="clip0_205_2618">
<rect width="29.4643" height="30" fill="white"/>
</clipPath>
</defs>
</svg>
