<svg width="29" height="18" viewBox="0 0 29 18" fill="none" xmlns="http://www.w3.org/2000/svg">
<path d="M27.5941 5.69531C26.0323 5.69531 12.9523 5.69531 12.4439 5.69531V1.30078C12.4439 0.815391 12.0504 0.421875 11.565 0.421875H0.878906C0.393516 0.421875 0 0.815391 0 1.30078V6.57422C0 7.05961 0.393516 7.45313 0.878906 7.45313H5.34305V10.9688H0.878906C0.393516 10.9688 0 11.3623 0 11.8477V17.1211C0 17.6065 0.393516 18 0.878906 18H22.251C22.7364 18 23.1299 17.6065 23.1299 17.1211V12.7266H27.5941C28.0795 12.7266 28.473 12.333 28.473 11.8477V6.57422C28.473 6.08883 28.0795 5.69531 27.5941 5.69531ZM1.75781 2.17969H10.6861V5.69531C10.2936 5.69531 2.14928 5.69531 1.75781 5.69531V2.17969ZM7.10086 7.45313H16.0291V10.9688C15.6367 10.9688 7.49232 10.9688 7.10086 10.9688V7.45313ZM1.75781 12.7266H10.6861V16.2422H1.75781V12.7266ZM21.3721 16.2422H12.4439V12.7266H21.3722V16.2422H21.3721ZM26.7152 10.9688C26.3227 10.9688 18.1784 10.9688 17.7869 10.9688V7.45313H26.7152V10.9688Z" fill="url(#paint0_linear_205_2643)"/>
<defs>
<linearGradient id="paint0_linear_205_2643" x1="14.2365" y1="0.421875" x2="14.2365" y2="18" gradientUnits="userSpaceOnUse">
<stop stop-color="#FFB15E"/>
<stop offset="1" stop-color="#BF8E31"/>
</linearGradient>
</defs>
</svg>
