<svg width="15" height="18" viewBox="0 0 15 18" fill="none" xmlns="http://www.w3.org/2000/svg">
<path d="M8.967 17.4811C8.47444 17.3813 8.00368 17.1953 7.56126 16.925C5.61214 15.7345 3.91142 14.094 2.64289 12.1809C1.37436 10.2678 0.525201 8.06261 0.187198 5.80381C0.0785889 5.0779 0.14752 4.36526 0.392165 3.6856C0.621328 3.04898 1.00453 2.46351 1.50037 1.99248C1.99841 1.51938 2.60636 1.16513 3.25848 0.968041C3.9539 0.757879 4.67301 0.725546 5.39589 0.872C5.62071 0.917549 5.7832 1.114 5.78578 1.34337L5.82658 4.98777C5.82842 5.15279 5.74647 5.30751 5.60895 5.39873L4.07095 6.41849C4.79142 9.06156 6.35244 11.4158 8.50665 13.1082L10.0446 12.0884C10.1822 11.9972 10.3566 11.982 10.5079 12.0479L13.849 13.504C14.0593 13.5956 14.177 13.8218 14.1315 14.0466C13.985 14.7695 13.6753 15.4193 13.211 15.9781C12.7757 16.5021 12.2127 16.9242 11.5831 17.1988C10.9562 17.4722 10.2678 17.5973 9.59213 17.5606C9.3804 17.5492 9.17178 17.5226 8.967 17.4811ZM4.81745 1.76934C3.84261 1.68142 2.89504 2.00974 2.17052 2.698C1.35579 3.47192 0.983658 4.55144 1.14952 5.65982C1.79937 10.0024 4.32123 13.8058 8.06845 16.0946C9.02484 16.6788 10.1641 16.7562 11.1941 16.307C12.1101 15.9075 12.7813 15.1624 13.0798 14.2302L10.3618 13.0457L8.75558 14.1107C8.58466 14.2241 8.36107 14.2181 8.19653 14.0957C5.62969 12.1883 3.79862 9.42672 3.04063 6.31986C2.99204 6.12067 3.07352 5.91236 3.24443 5.79906L4.85064 4.73405L4.81745 1.76934Z" fill="url(#paint0_linear_205_2379)"/>
<defs>
<linearGradient id="paint0_linear_205_2379" x1="8.7214" y1="1.54574" x2="4.14203" y2="23.4859" gradientUnits="userSpaceOnUse">
<stop stop-color="#E7E6E6"/>
<stop offset="1" stop-color="#C4C4C4" stop-opacity="0"/>
</linearGradient>
</defs>
</svg>
